<svg id="appointment_done" xmlns="http://www.w3.org/2000/svg" width="479" height="261.78" viewBox="0 0 479 261.78">
  <path id="Path_45461" data-name="Path 45461" d="M332.105,180.433,311.35,206.141l16.543-28.663a41.466,41.466,0,0,0-8.009-3.809,41.246,41.246,0,1,0-82.252-2.251l37.49,2.466-36.831,3.309a41.307,41.307,0,0,0,18.265,27.124L277.079,191l-17.068,15.3a41.334,41.334,0,0,0,5.242,2.255A41.238,41.238,0,0,0,292.7,251.526a41.242,41.242,0,0,0,56.1,42.455,14.146,14.146,0,0,0,1.909,4.546,13.544,13.544,0,0,0,5.221,4.839,14.089,14.089,0,0,0,7.411,11.615,14.114,14.114,0,0,0,7.411,11.611,14.105,14.105,0,0,0,7.407,11.619,13.593,13.593,0,0,0,2.189,6.772c3.349,5.246,9.315,7.427,13.324,4.884s4.542-8.884,1.192-14.134a13.609,13.609,0,0,0-5.213-4.847,14.114,14.114,0,0,0-7.423-11.627,14.105,14.105,0,0,0-7.415-11.611,14.089,14.089,0,0,0-7.411-11.611,13.589,13.589,0,0,0-2.194-6.772,14.081,14.081,0,0,0-3.256-3.606,41.238,41.238,0,0,0-14.614-69,41.27,41.27,0,0,0-15.233-36.22Z" transform="translate(-145.58 -128.362)" fill="#f2f2f2"/>
  <path id="Path_45462" data-name="Path 45462" d="M638.756,193.727l-3.7,2.348,2.25-4.09a3.662,3.662,0,0,0-2.242-.814H635a4.391,4.391,0,0,1-.769-.057l-1.258.814.541-.981a4.477,4.477,0,0,1-2.2-1.664l-2.247,1.424,1.42-2.58a6.581,6.581,0,0,0-5.034-2.548,6.9,6.9,0,0,0-5.763,3.557,4.3,4.3,0,0,1-3.809,2.035h-.126c-2.58,0-4.672,2.926-4.672,6.511s2.092,6.532,4.672,6.532a3.508,3.508,0,0,0,1.628-.407,6.739,6.739,0,0,1,5.653-.11,5.909,5.909,0,0,0,4.806,0,6.748,6.748,0,0,1,5.6.11,3.5,3.5,0,0,0,1.628.407c2.58,0,4.672-2.922,4.672-6.532a8.253,8.253,0,0,0-1-3.956Z" transform="translate(-367.077 -162.295)" fill="#f2f2f2"/>
  <path id="Path_45463" data-name="Path 45463" d="M631.77,215.723a6.918,6.918,0,0,0-4,.435,5.909,5.909,0,0,1-4.806,0,6.748,6.748,0,0,0-5.657.11,3.48,3.48,0,0,1-1.628.407c-2.3,0-4.2-2.307-4.6-5.352a4.449,4.449,0,0,0,1.148-1.221,6.444,6.444,0,0,1,11.5-.041,4.416,4.416,0,0,0,3.809,2.092h.061C629.422,212.125,630.989,213.591,631.77,215.723Z" transform="translate(-367.07 -174.73)" opacity="0.03"/>
  <path id="Path_45464" data-name="Path 45464" d="M975.756,154.727l-3.7,2.348,2.25-4.09a3.663,3.663,0,0,0-2.242-.814H972a4.39,4.39,0,0,1-.769-.057l-1.258.814.541-.981a4.476,4.476,0,0,1-2.2-1.664l-2.246,1.424,1.42-2.58a6.581,6.581,0,0,0-5.034-2.548,6.9,6.9,0,0,0-5.763,3.557,4.3,4.3,0,0,1-3.809,2.035h-.126c-2.58,0-4.672,2.926-4.672,6.511s2.092,6.532,4.672,6.532a3.508,3.508,0,0,0,1.628-.407,6.739,6.739,0,0,1,5.653-.11,5.909,5.909,0,0,0,4.806,0,6.748,6.748,0,0,1,5.6.11,3.5,3.5,0,0,0,1.628.407c2.58,0,4.672-2.922,4.672-6.532A8.253,8.253,0,0,0,975.756,154.727Z" transform="translate(-566.929 -139.166)" fill="#f2f2f2"/>
  <path id="Path_45465" data-name="Path 45465" d="M968.77,176.723a6.919,6.919,0,0,0-4,.435,5.909,5.909,0,0,1-4.806,0,6.747,6.747,0,0,0-5.657.11,3.479,3.479,0,0,1-1.628.407c-2.3,0-4.2-2.307-4.6-5.352a4.447,4.447,0,0,0,1.148-1.221,6.444,6.444,0,0,1,11.5-.041,4.416,4.416,0,0,0,3.809,2.092h.061C966.422,173.125,967.989,174.591,968.77,176.723Z" transform="translate(-566.923 -151.602)" opacity="0.03"/>
  <path id="Path_45466" data-name="Path 45466" d="M789.044,241.981l5.966,3.793L791.4,239.2a5.893,5.893,0,0,1,3.6-1.282h.094a6.952,6.952,0,0,0,1.221-.09l2.014,1.278-.875-1.571a7.235,7.235,0,0,0,3.528-2.678l3.61,2.287L802.336,233a10.555,10.555,0,0,1,8.086-4.07c3.756,0,7.1,2.23,9.258,5.7a6.918,6.918,0,0,0,6.1,3.3h.2c4.143,0,7.5,4.7,7.5,10.492s-3.357,10.5-7.5,10.5a5.64,5.64,0,0,1-2.617-.655,10.821,10.821,0,0,0-9.079-.175,9.474,9.474,0,0,1-7.732,0,10.842,10.842,0,0,0-9,.175,5.656,5.656,0,0,1-2.584.639c-4.147,0-7.5-4.7-7.5-10.5a13.34,13.34,0,0,1,1.575-6.422Z" transform="translate(-471.675 -188.003)" fill="#f2f2f2"/>
  <path id="Path_45467" data-name="Path 45467" d="M818.89,277.273a11.135,11.135,0,0,1,6.43.7,9.474,9.474,0,0,0,7.732,0,10.829,10.829,0,0,1,9.083.175,5.624,5.624,0,0,0,2.613.655c3.683,0,6.743-3.707,7.382-8.6a7.1,7.1,0,0,1-1.84-1.986c-2.161-3.476-5.5-5.7-9.258-5.7s-7.053,2.206-9.214,5.649a7.1,7.1,0,0,1-6.1,3.357h-.094C822.667,271.5,820.127,273.85,818.89,277.273Z" transform="translate(-490.309 -207.923)" opacity="0.03"/>
  <ellipse id="Ellipse_353" data-name="Ellipse 353" cx="239.5" cy="8.546" rx="239.5" ry="8.546" transform="translate(0 244.688)" fill="#3f3d56"/>
  <rect id="Rectangle_11874" data-name="Rectangle 11874" width="339.41" height="185.577" rx="20.42" transform="translate(69.795 63.485)" fill="#f2f2f2"/>
  <path id="Path_45468" data-name="Path 45468" d="M522.41,292.67v4.713H183V292.67a8.31,8.31,0,0,1,8.31-8.31H514.1A8.31,8.31,0,0,1,522.41,292.67Z" transform="translate(-113.205 -220.874)" fill="#3f3d56"/>
  <circle id="Ellipse_354" data-name="Ellipse 354" cx="2.442" cy="2.442" r="2.442" transform="translate(76.103 67.759)" fill="#8c19ac"/>
  <circle id="Ellipse_355" data-name="Ellipse 355" cx="2.442" cy="2.442" r="2.442" transform="translate(82.207 67.759)" fill="#8c19ac"/>
  <circle id="Ellipse_356" data-name="Ellipse 356" cx="2.442" cy="2.442" r="2.442" transform="translate(88.312 67.759)" fill="#8c19ac"/>
  <path id="Path_45469" data-name="Path 45469" d="M347.5,503.86" transform="translate(-210.759 -351.045)" fill="none" stroke="#f2f2f2" stroke-miterlimit="10" stroke-width="2"/>
  <path id="Path_45470" data-name="Path 45470" d="M333.5,502.86" transform="translate(-202.457 -350.452)" fill="none" stroke="#f2f2f2" stroke-miterlimit="10" stroke-width="2"/>
  <rect id="Rectangle_11875" data-name="Rectangle 11875" width="39.069" height="31.743" rx="9.29" transform="translate(121.479 98.078)" fill="#fff"/>
  <rect id="Rectangle_11876" data-name="Rectangle 11876" width="39.069" height="31.743" rx="9.29" transform="translate(167.06 98.078)" fill="#8c19ac"/>
  <rect id="Rectangle_11877" data-name="Rectangle 11877" width="39.069" height="31.743" rx="9.29" transform="translate(212.641 98.078)" fill="#fff"/>
  <rect id="Rectangle_11878" data-name="Rectangle 11878" width="39.069" height="31.743" rx="9.29" transform="translate(258.221 98.078)" fill="#fff"/>
  <rect id="Rectangle_11879" data-name="Rectangle 11879" width="39.069" height="31.743" rx="9.29" transform="translate(303.801 98.078)" fill="#8c19ac"/>
  <rect id="Rectangle_11880" data-name="Rectangle 11880" width="39.069" height="31.743" rx="9.29" transform="translate(121.479 151.391)" fill="#fff"/>
  <rect id="Rectangle_11881" data-name="Rectangle 11881" width="39.069" height="31.743" rx="9.29" transform="translate(167.06 151.391)" fill="#fff"/>
  <rect id="Rectangle_11882" data-name="Rectangle 11882" width="39.069" height="31.743" rx="9.29" transform="translate(212.641 151.391)" fill="#8c19ac"/>
  <rect id="Rectangle_11883" data-name="Rectangle 11883" width="39.069" height="31.743" rx="9.29" transform="translate(258.221 151.391)" fill="#fff"/>
  <rect id="Rectangle_11884" data-name="Rectangle 11884" width="39.069" height="31.743" rx="9.29" transform="translate(303.801 151.391)" fill="#fff"/>
  <rect id="Rectangle_11885" data-name="Rectangle 11885" width="39.069" height="31.743" rx="9.29" transform="translate(121.479 204.703)" fill="#fff"/>
  <rect id="Rectangle_11886" data-name="Rectangle 11886" width="39.069" height="31.743" rx="9.29" transform="translate(167.06 204.703)" fill="#fff"/>
  <rect id="Rectangle_11887" data-name="Rectangle 11887" width="39.069" height="31.743" rx="9.29" transform="translate(212.641 204.703)" fill="#fff"/>
  <rect id="Rectangle_11888" data-name="Rectangle 11888" width="39.069" height="31.743" rx="9.29" transform="translate(258.221 204.703)" fill="#8c19ac" opacity="0.3"/>
  <rect id="Rectangle_11889" data-name="Rectangle 11889" width="39.069" height="31.743" rx="9.29" transform="translate(303.801 204.703)" fill="#fff"/>
  <path id="Path_45471" data-name="Path 45471" d="M502.424,351.51l-2.059-2.071a1.091,1.091,0,0,0-1.551,0l-12.925,12.815-5.466-5.51a1.083,1.083,0,0,0-1.538,0l-2.08,2.055a1.107,1.107,0,0,0,0,1.555l8.3,8.363a1.107,1.107,0,0,0,1.555,0l15.766-15.652a1.091,1.091,0,0,0,0-1.555Z" transform="translate(-287.252 -259.276)" fill="#3acc6c"/>
  <path id="Path_45472" data-name="Path 45472" d="M842.424,351.51l-2.059-2.071a1.091,1.091,0,0,0-1.551,0l-12.925,12.815-5.466-5.51a1.083,1.083,0,0,0-1.538,0l-2.08,2.055a1.107,1.107,0,0,0,0,1.555l8.3,8.363a1.107,1.107,0,0,0,1.555,0l15.766-15.652a1.091,1.091,0,0,0,0-1.555Z" transform="translate(-488.884 -259.276)" fill="#3acc6c"/>
  <path id="Path_45473" data-name="Path 45473" d="M614.424,481.51l-2.059-2.071a1.091,1.091,0,0,0-1.551,0l-12.925,12.815-5.466-5.51a1.083,1.083,0,0,0-1.538,0l-2.08,2.055a1.107,1.107,0,0,0,0,1.555l8.3,8.363a1.107,1.107,0,0,0,1.555,0l15.766-15.652a1.091,1.091,0,0,0,0-1.555Z" transform="translate(-353.672 -336.371)" fill="#3acc6c"/>
  <path id="Path_45474" data-name="Path 45474" d="M725.424,617.51l-2.059-2.071a1.091,1.091,0,0,0-1.551,0l-12.925,12.815-5.466-5.51a1.083,1.083,0,0,0-1.538,0l-2.08,2.035a1.107,1.107,0,0,0,0,1.555l8.3,8.363a1.107,1.107,0,0,0,1.555,0l15.766-15.652A1.091,1.091,0,0,0,725.424,617.51Z" transform="translate(-419.499 -417.023)" fill="#3acc6c"/>
  <path id="Path_45475" data-name="Path 45475" d="M1008.273,674.827c-1.221-2.242.163-4.993,1.746-6.992s3.5-4.07,3.463-6.629c-.061-3.663-3.948-5.828-7.053-7.769a34.189,34.189,0,0,1-6.332-5.091,9.279,9.279,0,0,1-1.945-2.6,10.561,10.561,0,0,1-.586-4.627q.208-7.838.777-15.664" transform="translate(-596.26 -423.152)" fill="none" stroke="#3f3d56" stroke-miterlimit="10" stroke-width="4"/>
  <path id="Path_45476" data-name="Path 45476" d="M984.992,616.813a5.7,5.7,0,0,1,2.849-4.68l1.278,2.531-.041-3.064a5.787,5.787,0,0,1,1.884-.228,5.7,5.7,0,1,1-5.97,5.441Z" transform="translate(-588.81 -414.8)" fill="#57b894"/>
  <path id="Path_45477" data-name="Path 45477" d="M1009.075,707.63a5.7,5.7,0,1,0-.277-4.6l3.569,2.9-3.927-.908A5.7,5.7,0,0,0,1009.075,707.63Z" transform="translate(-602.718 -466.96)" fill="#57b894"/>
  <path id="Path_45478" data-name="Path 45478" d="M1009.061,675.875a5.7,5.7,0,0,0,1.791-11.187l.033,2.352-1.294-2.56h0a5.7,5.7,0,0,0-5.97,5.437,5.634,5.634,0,0,0,.244,1.949A5.7,5.7,0,0,0,1009.061,675.875Z" transform="translate(-599.855 -446.294)" fill="#57b894"/>
  <path id="Path_45479" data-name="Path 45479" d="M974.946,653.221a5.7,5.7,0,1,0-2.527-10.691l1.009,2.767-2.076-1.994a5.7,5.7,0,0,0-1.844,3.943,5.61,5.61,0,0,0,.142,1.575,5.7,5.7,0,0,0,5.295,4.4Z" transform="translate(-579.627 -432.865)" fill="#57b894"/>
  <path id="Path_45480" data-name="Path 45480" d="M985.937,622.892c1.319.142,2.6.553,3.923.635a4.267,4.267,0,0,0,3.614-1.262,17.688,17.688,0,0,0,1.054-1.86,4.07,4.07,0,0,1,1.441-1.355,5.7,5.7,0,1,1-10.679,3.793Q985.616,622.855,985.937,622.892Z" transform="translate(-588.99 -419.356)" opacity="0.1"/>
  <path id="Path_45481" data-name="Path 45481" d="M975.182,657.959a5.7,5.7,0,0,0,5.433-8.139,4.221,4.221,0,0,0-1.148,1.148,18.674,18.674,0,0,1-1.131,1.888,4.679,4.679,0,0,1-3.789,1.327c-1.38-.061-2.71-.456-4.07-.582-.191,0-.383-.029-.578-.033a5.7,5.7,0,0,0,5.283,4.391Z" transform="translate(-579.863 -437.604)" opacity="0.1"/>
  <path id="Path_45482" data-name="Path 45482" d="M1009.439,680.772a5.7,5.7,0,0,0,5.478-8.042,4.671,4.671,0,0,0-1.221,1.16c-.444.627-.72,1.347-1.221,1.925a5.29,5.29,0,0,1-4.041,1.42c-1.457-.033-2.78-.378-4.184-.488A5.7,5.7,0,0,0,1009.439,680.772Z" transform="translate(-600.233 -451.19)" opacity="0.1"/>
  <path id="Path_45483" data-name="Path 45483" d="M1010,712.95a5.7,5.7,0,0,0,10.414-4.66,5.528,5.528,0,0,0-1.254,1.119,24.827,24.827,0,0,1-1.53,2.035,7.114,7.114,0,0,1-4.733,1.665A24.423,24.423,0,0,1,1010,712.95Z" transform="translate(-603.644 -472.279)" opacity="0.1"/>
  <path id="Path_45484" data-name="Path 45484" d="M1020.622,736.881s-4.509-.138-5.868-1.107-6.918-2.12-7.268-.57-6.776,7.732-1.689,7.757,11.826-.814,13.186-1.628S1020.622,736.881,1020.622,736.881Z" transform="translate(-599.993 -487.79)" fill="#656380"/>
  <path id="Path_45485" data-name="Path 45485" d="M1005.732,745.955c5.091.041,11.826-.794,13.182-1.628,1.034-.631,1.445-2.885,1.583-3.927h.151s-.285,3.638-1.628,4.477-8.095,1.66-13.186,1.628c-1.469,0-1.974-.533-1.945-1.306C1004.08,745.654,1004.637,745.935,1005.732,745.955Z" transform="translate(-600.019 -491.321)" opacity="0.2"/>
  <path id="Path_45486" data-name="Path 45486" d="M172.779,635.778c-1.787-3.3.24-7.358,2.568-10.308s5.168-6.015,5.111-9.767c-.09-5.4-5.82-8.587-10.4-11.452a50.713,50.713,0,0,1-9.336-7.5,13.752,13.752,0,0,1-2.849-3.842,15.57,15.57,0,0,1-.859-6.829q.293-11.558,1.139-23.1" transform="translate(-97.779 -386.105)" fill="none" stroke="#3f3d56" stroke-miterlimit="10" stroke-width="4"/>
  <path id="Path_45487" data-name="Path 45487" d="M138.4,550.2a8.416,8.416,0,0,1,4.2-6.918l1.888,3.732-.057-4.517a8.424,8.424,0,1,1-6.035,7.688Z" transform="translate(-86.748 -373.756)" fill="#57b894"/>
  <path id="Path_45488" data-name="Path 45488" d="M173.944,684.117a8.42,8.42,0,1,0-.407-6.78l5.258,4.277-5.8-1.339a8.387,8.387,0,0,0,.944,3.842Z" transform="translate(-107.274 -450.665)" fill="#57b894"/>
  <path id="Path_45489" data-name="Path 45489" d="M173.836,637.284a8.424,8.424,0,0,0,2.67-16.523l.045,3.467-1.909-3.773h-.02a8.424,8.424,0,1,0-.785,16.829Z" transform="translate(-103.008 -420.185)" fill="#57b894"/>
  <path id="Path_45490" data-name="Path 45490" d="M123.577,603.849a8.428,8.428,0,0,0,8.807-8.021,8.318,8.318,0,0,0-.814-3.992,8.412,8.412,0,0,0-11.733-3.748l1.485,4.07-3.06-2.938a8.424,8.424,0,0,0,5.291,14.622Z" transform="translate(-73.194 -400.354)" fill="#57b894"/>
  <path id="Path_45491" data-name="Path 45491" d="M139.806,559.191c1.941.216,3.834.814,5.783.94a6.271,6.271,0,0,0,5.327-1.864,26.149,26.149,0,0,0,1.559-2.739,6.011,6.011,0,0,1,2.12-2,8.424,8.424,0,1,1-15.746,5.592C139.167,559.134,139.489,559.158,139.806,559.191Z" transform="translate(-87.022 -380.501)" opacity="0.1"/>
  <path id="Path_45492" data-name="Path 45492" d="M123.9,610.884a8.428,8.428,0,0,0,8.807-8.021,8.318,8.318,0,0,0-.814-3.992,6.262,6.262,0,0,0-1.693,1.693,26.933,26.933,0,0,1-1.669,2.784c-1.31,1.542-3.553,2.035-5.584,1.953s-4-.667-6.019-.855c-.281-.024-.566-.045-.851-.053A8.42,8.42,0,0,0,123.9,610.884Z" transform="translate(-73.52 -407.39)" opacity="0.1"/>
  <path id="Path_45493" data-name="Path 45493" d="M174.379,644.539a8.42,8.42,0,0,0,8.078-11.859,6.793,6.793,0,0,0-1.778,1.713,29.689,29.689,0,0,1-1.831,2.849c-1.42,1.583-3.809,2.141-5.962,2.092-2.084-.049-4.094-.558-6.166-.716a8.428,8.428,0,0,0,7.659,5.921Z" transform="translate(-103.551 -427.439)" opacity="0.1"/>
  <path id="Path_45494" data-name="Path 45494" d="M175.32,691.984a8.424,8.424,0,0,0,15.355-6.874,8.507,8.507,0,0,0-1.852,1.628,35.981,35.981,0,0,1-2.255,3c-1.721,1.689-4.5,2.385-6.975,2.442A36.252,36.252,0,0,1,175.32,691.984Z" transform="translate(-108.65 -458.532)" opacity="0.1"/>
  <path id="Path_45495" data-name="Path 45495" d="M190.957,727.282s-6.646-.2-8.652-1.628-10.223-3.13-10.719-.842-9.991,11.4-2.487,11.44,17.439-1.168,19.437-2.389S190.957,727.282,190.957,727.282Z" transform="translate(-103.256 -481.414)" fill="#656380"/>
  <path id="Path_45496" data-name="Path 45496" d="M169.007,740.666c7.5.061,17.439-1.168,19.437-2.385,1.522-.928,2.133-4.257,2.332-5.791H191s-.407,5.36-2.421,6.577-11.932,2.442-19.437,2.389c-2.165,0-2.914-.789-2.873-1.929C166.565,740.222,167.379,740.654,169.007,740.666Z" transform="translate(-103.281 -486.631)" opacity="0.2"/>
  <path id="Path_45497" data-name="Path 45497" d="M855.557,690.222a1.968,1.968,0,0,0-.13.533c-.647,4.261-4.371,7.407-5.73,11.5a11.029,11.029,0,0,0,.48,8.086,2.674,2.674,0,0,1,.37,1.168c0,.407-.326.851-.737.814a5.9,5.9,0,0,1-2.584-1.343,9.2,9.2,0,0,1-2.629-2.442,4.55,4.55,0,0,1-.777-3.431c.488-2.222,2.185-4.2,2.714-6.418l1.388-5.742a8.982,8.982,0,0,1,1.139-3.065,1.892,1.892,0,0,1,.96-.814,2.271,2.271,0,0,1,.724-.057A17.3,17.3,0,0,1,855.557,690.222Z" transform="translate(-505.052 -460.84)" fill="#ffc1c7"/>
  <path id="Path_45498" data-name="Path 45498" d="M847.343,731.646a.77.77,0,0,1,.44.033,1.09,1.09,0,0,1,.407.521,4.77,4.77,0,0,0,1.917,1.925,5.555,5.555,0,0,1,.936.529,1.087,1.087,0,0,1,.452.928c-.065.533-.647.814-1.16.973a8.7,8.7,0,0,1-3.394.3,2.975,2.975,0,0,1-1.221-.342,3.609,3.609,0,0,1-.94-.952,23.6,23.6,0,0,0-3.012-3.414,13.189,13.189,0,0,1-1.579-1.469,2.621,2.621,0,0,1-.663-1.986c.159-1.058,1.16-1.75,1.791-2.617a17.877,17.877,0,0,1,2.653,4.155,11.941,11.941,0,0,0,.757,1.787c.289.476.7,1.026,1.221.716S846.59,731.776,847.343,731.646Z" transform="translate(-502.54 -482.823)" fill="#ff6584"/>
  <path id="Path_45499" data-name="Path 45499" d="M868.634,615.27a5.355,5.355,0,0,1,.362,2.409l-.037,6.076a24.418,24.418,0,0,1-.187,3.537c-.322,2.112-1.188,4.11-1.567,6.214-.358,1.974-.289,4.025-.871,5.946-.9,2.975-3.3,5.331-4.139,8.327a.943.943,0,0,1-.24.484.7.7,0,0,1-.342.146,3.634,3.634,0,0,1-1.958-.366l-4.375-1.717c-.3.13-.509-.216-.492-.549a1.591,1.591,0,0,1,.435-.867,14.55,14.55,0,0,0,1.408-2.169,19.489,19.489,0,0,0,2.035-7.85,58.031,58.031,0,0,0-.24-8.139q-.224-2.938-.448-5.869a4.213,4.213,0,0,1,.407-2.719,4.016,4.016,0,0,1,2.3-1.367,37.314,37.314,0,0,1,7.952-1.526Z" transform="translate(-511.598 -417.115)" fill="#3c354c"/>
  <path id="Path_45500" data-name="Path 45500" d="M868.634,615.27a5.355,5.355,0,0,1,.362,2.409l-.037,6.076a24.418,24.418,0,0,1-.187,3.537c-.322,2.112-1.188,4.11-1.567,6.214-.358,1.974-.289,4.025-.871,5.946-.9,2.975-3.3,5.331-4.139,8.327a.943.943,0,0,1-.24.484.7.7,0,0,1-.342.146,3.634,3.634,0,0,1-1.958-.366l-4.375-1.717c-.3.13-.509-.216-.492-.549a1.591,1.591,0,0,1,.435-.867,14.55,14.55,0,0,0,1.408-2.169,19.489,19.489,0,0,0,2.035-7.85,58.031,58.031,0,0,0-.24-8.139q-.224-2.938-.448-5.869a4.213,4.213,0,0,1,.407-2.719,4.016,4.016,0,0,1,2.3-1.367,37.314,37.314,0,0,1,7.952-1.526Z" transform="translate(-511.598 -417.115)" opacity="0.1"/>
  <path id="Path_45501" data-name="Path 45501" d="M900.141,622.772a12.655,12.655,0,0,0-1.461,2.812,15.071,15.071,0,0,0-.492,2.287,50.2,50.2,0,0,0-.924,10.85,2.287,2.287,0,0,1-2.035-.5,5.815,5.815,0,0,1-1.331-1.721,18.31,18.31,0,0,1-1.095-2.189,13.71,13.71,0,0,1-1.038-5.335.919.919,0,0,1,.073-.435,1,1,0,0,1,.216-.256c2.389-2.263,3.764-5.368,5.079-8.383a15.511,15.511,0,0,0,1.091-3.081,7.062,7.062,0,0,1,.912-3.121,3.925,3.925,0,0,1,2.58-1.221,4.855,4.855,0,0,1,2.084.086c.741.228,2.495,1.095,2.6,1.97s-1.461,1.994-1.97,2.576A49.592,49.592,0,0,0,900.141,622.772Z" transform="translate(-533.525 -415.411)" fill="#ffc1c7"/>
  <path id="Path_45502" data-name="Path 45502" d="M894.417,661.208c.521.875,1.249,1.852.879,2.8a1.721,1.721,0,0,1-2.539.574,3.914,3.914,0,0,1-.635-.61,62.6,62.6,0,0,1-6.1-8.034,7.892,7.892,0,0,1-1.449-3.423.716.716,0,0,1,.057-.407.785.785,0,0,1,.317-.269,15.809,15.809,0,0,1,3.524-1.465,7.476,7.476,0,0,0,1.042,3.968,18.948,18.948,0,0,1,1.343,2.719c.277.684.562.737,1.274.745.574,0,.985-.069,1.262.513A30.537,30.537,0,0,0,894.417,661.208Z" transform="translate(-529.253 -437.931)" fill="#ff6584"/>
  <path id="Path_45503" data-name="Path 45503" d="M861.123,590c5.234.081,10.459.448,15.68.814l3.394.24a12.682,12.682,0,0,1,2.959.44,12.987,12.987,0,0,1,2.621,1.3,2.3,2.3,0,0,1,.732.586,2.193,2.193,0,0,1,.309.814,4.636,4.636,0,0,1,.191,1.88,4.586,4.586,0,0,1-.5,1.29l-2.377,4.7c-.761-.248-1.351-.745-2.1-1.038a10.341,10.341,0,0,0-2.776-.529l-2.474-.244a.7.7,0,0,1-.069-.488c-2.173.757-4.338,1.461-6.511,2.218-3.988,1.388-7.985,2.78-11.826,4.538a2.436,2.436,0,0,1-1.8.313,1.876,1.876,0,0,1-.566-.374,5.816,5.816,0,0,1-1.75-3.406,12.7,12.7,0,0,1,.057-3.886c.366-2.649,1.168-5.421,3.195-7.167C858.584,591.045,859.707,589.962,861.123,590Z" transform="translate(-511.213 -402.128)" fill="#3c354c"/>
  <path id="Path_45504" data-name="Path 45504" d="M914.845,601.24a25.034,25.034,0,0,0-3.362,1.97,2.732,2.732,0,0,0-.444.362,3.325,3.325,0,0,0-.273.358,6.723,6.723,0,0,0-1.148,2.287" transform="translate(-544.115 -408.795)" fill="none" stroke="#000" stroke-miterlimit="10" stroke-width="1" opacity="0.1"/>
  <path id="Path_45505" data-name="Path 45505" d="M766.5,582.705a9.52,9.52,0,0,0-1.681,2.307c-1.241,1.953-3.024,3.524-4.249,5.49a10.236,10.236,0,0,1-1.709,2.442,5.487,5.487,0,0,1-3.329,1.188,7.671,7.671,0,0,0-3.17.541,5.978,5.978,0,0,0-1.9,2.035v.024a.92.92,0,0,0,1.1,1.367,16.39,16.39,0,0,1,2.7-.785,17.088,17.088,0,0,0,2.4-.545,11.23,11.23,0,0,0,2.149-1.144,13.963,13.963,0,0,0,1.689-1.184c.655-.558,1.221-1.221,1.839-1.811a28.76,28.76,0,0,1,2.849-2.067,21.733,21.733,0,0,0,6.365-6.955,1.579,1.579,0,0,0,.289-.924,1.673,1.673,0,0,0-.407-.814c-.72-.916-1.376-1.664-2.377-.814C768.26,581.712,767.271,582.034,766.5,582.705Z" transform="translate(-449.633 -396.604)" fill="#ffc1c7"/>
  <path id="Path_45506" data-name="Path 45506" d="M828.773,532.521a1.221,1.221,0,0,0,.26.716c.269.273.712.216,1.095.191a3.618,3.618,0,0,1,2.873,1,6.6,6.6,0,0,1,1.058,5.262,3.85,3.85,0,0,1-2.072,2.092,9.674,9.674,0,0,1-2.922.716,7.3,7.3,0,0,1-2.523,0,10.983,10.983,0,0,1-2.739-1.306,15,15,0,0,1-1.8-1.017,2.849,2.849,0,0,1-1.176-1.652.9.9,0,0,1,.3-.956,1.693,1.693,0,0,1,.456-.138,1.929,1.929,0,0,0,1.388-1.363c.273-1.054-.383-2.116-.448-3.2a1.518,1.518,0,0,1,.191-.908,1.994,1.994,0,0,1,.916-.651l2.035-.912a12.179,12.179,0,0,1,1.917-.851c.647-.167.692.281.814.814C828.541,531.081,828.675,531.8,828.773,532.521Z" transform="translate(-491.434 -366.252)" fill="#ffc1c7"/>
  <path id="Path_45507" data-name="Path 45507" d="M828.773,532.521a1.221,1.221,0,0,0,.26.716c.269.273.712.216,1.095.191a3.618,3.618,0,0,1,2.873,1,6.6,6.6,0,0,1,1.058,5.262,3.85,3.85,0,0,1-2.072,2.092,9.674,9.674,0,0,1-2.922.716,7.3,7.3,0,0,1-2.523,0,10.983,10.983,0,0,1-2.739-1.306,15,15,0,0,1-1.8-1.017,2.849,2.849,0,0,1-1.176-1.652.9.9,0,0,1,.3-.956,1.693,1.693,0,0,1,.456-.138,1.929,1.929,0,0,0,1.388-1.363c.273-1.054-.383-2.116-.448-3.2a1.518,1.518,0,0,1,.191-.908,1.994,1.994,0,0,1,.916-.651l2.035-.912a12.179,12.179,0,0,1,1.917-.851c.647-.167.692.281.814.814C828.541,531.081,828.675,531.8,828.773,532.521Z" transform="translate(-491.434 -366.252)" opacity="0.1"/>
  <circle id="Ellipse_357" data-name="Ellipse 357" cx="5.075" cy="5.075" r="5.075" transform="translate(326.97 157.82)" fill="#ffc1c7"/>
  <path id="Path_45508" data-name="Path 45508" d="M814.556,539.115a6.98,6.98,0,0,1,2.385-.6,2.82,2.82,0,0,1,2.222.879,13.619,13.619,0,0,1,1.013,1.933c.749,1.221,2.21,1.778,3.378,2.613a2.548,2.548,0,0,1,.7.684,3.738,3.738,0,0,1,.289,2.145,10.362,10.362,0,0,0,1.494,5.136,30.3,30.3,0,0,0,3.215,4.359,4.348,4.348,0,0,1,.7,1.038c.285.684.2,1.51.627,2.116a5.914,5.914,0,0,0-3,.407c-1.469.606-1.538,2.755-2.23,4.188a54.537,54.537,0,0,1-4.741,7.431,9.5,9.5,0,0,0-1.123,1.86,5.575,5.575,0,0,1-.13-2.1c-.081-1.575-.993-2.987-1.249-4.542a21.426,21.426,0,0,1-.134-2.344,11.216,11.216,0,0,0-.761-3.459,22.212,22.212,0,0,0-1.807-3.39,4.786,4.786,0,0,0-1.363-1.628c-.676-.44-1.608-.566-2.035-1.249a2.725,2.725,0,0,0-.407-.659,1.524,1.524,0,0,0-.472-.24,20.8,20.8,0,0,1-2.409-1.335,3.876,3.876,0,0,0-2.637-.574,32.557,32.557,0,0,1-5.628,5.16,4.563,4.563,0,0,0-1.652,1.689,8.6,8.6,0,0,1-2.674-2,1.354,1.354,0,0,1-.285-.407c-.208-.594.407-1.127.9-1.5a12.168,12.168,0,0,0,4.045-5.384c.525-1.38.871-2.967,2.067-3.834a7.123,7.123,0,0,0,1.07-.753,13.544,13.544,0,0,0,.814-1.27,2.153,2.153,0,0,1,2.259-.765,9.973,9.973,0,0,1,1.347.647,7,7,0,0,0,3.663.269l4.766-.484a1.628,1.628,0,0,0-.35-1.546,4.733,4.733,0,0,0-.631-.5A3.5,3.5,0,0,1,814.556,539.115Z" transform="translate(-476.615 -371.592)" fill="#ff6584"/>
  <path id="Path_45509" data-name="Path 45509" d="M819.243,506.729a4.387,4.387,0,0,1,2.552,2.5,10.2,10.2,0,0,0,.537,1.428,8.236,8.236,0,0,0,1.323,1.473,2.21,2.21,0,0,1,.741,1.77c-.041.244-.147.472-.179.712-.142,1.054,1.054,1.778,1.42,2.776.476,1.31-.562,2.873.073,4.11a13.139,13.139,0,0,0,.948,1.221c.273.407.3,1.139-.159,1.388-.716.387-1.547-.745-2.307-.448-.2.077-.346.244-.537.33-.533.24-1.156-.232-1.331-.789a4.154,4.154,0,0,1,.033-1.734,2.1,2.1,0,0,0-.326-1.664c-.309-.354-.814-.492-1.135-.814a2.961,2.961,0,0,1-.407-2.381,5.9,5.9,0,0,0-1.376-4.692.305.305,0,0,0-.216-.118.346.346,0,0,0-.216.134,10.13,10.13,0,0,1-1.823,1.51,1.147,1.147,0,0,1-.651.236.413.413,0,0,1-.407-.46,4.782,4.782,0,0,0-1.522,1.115,1.589,1.589,0,0,1-.122-.7,6.562,6.562,0,0,1-.814,1.245,10.142,10.142,0,0,0-.9,1.107,1.628,1.628,0,0,0-.228,1.355c.456,1.306,2.78,1.005,3.284,2.3.11.289.106.606.22.891.224.553.814.814,1.3,1.18s.912.989.619,1.506c-.256.444-.855.492-1.351.606a3.256,3.256,0,0,0-2.035,1.53,1.92,1.92,0,0,1-.525.72,1.477,1.477,0,0,1-.663.163,2.452,2.452,0,0,1-1.962-.407c-.639-.672-.338-1.892-.989-2.552-.151-.146-.338-.252-.48-.407a1.815,1.815,0,0,1-.362-1.363,39,39,0,0,0,.488-4.037,23.1,23.1,0,0,0-.517-2.662,7.163,7.163,0,0,1,1.449-5.856,6.276,6.276,0,0,1,4.188-2.035C816.341,506.7,817.749,506.187,819.243,506.729Z" transform="translate(-484.513 -352.603)" fill="#3c354c"/>
</svg>
