<svg id="appointment" xmlns="http://www.w3.org/2000/svg" xmlns:xlink="http://www.w3.org/1999/xlink" width="23.153" height="26.437" viewBox="0 0 23.153 26.437">
  <defs>
    <linearGradient id="linear-gradient" x1="0.5" x2="0.5" y2="1" gradientUnits="objectBoundingBox">
      <stop offset="0" stop-color="#00aeef"/>
      <stop offset="1" stop-color="#2970ae"/>
    </linearGradient>
  </defs>
  <path id="Path_45522" data-name="Path 45522" d="M-79.147,225.4c3.256,0,6.513.044,9.768-.023,1.192-.025,1.681.293,1.66,1.568-.064,3.973,0,7.947-.033,11.92-.016,2.051-.912,2.941-2.93,2.947q-8.526.026-17.054,0c-2.031-.006-2.935-.885-2.951-2.925-.032-4.029.015-8.058-.025-12.086-.011-1.084.393-1.437,1.463-1.42C-85.881,225.435-82.514,225.4-79.147,225.4Zm-1.684,8.949c-.8-.956-1.341-1.646-1.927-2.3-.951-1.062-1.536-.156-2.145.448s-1.461,1.135-.4,2.128c1.209,1.128,2.353,2.331,3.472,3.55.737.8,1.332.742,2.068-.006,2.13-2.163,4.26-4.33,6.475-6.4,1.038-.972.531-1.536-.211-2.271-.769-.762-1.418-1.415-2.435-.294C-77.411,230.835-78.965,232.4-80.831,234.351Z" transform="translate(90.722 -215.389)" fill-rule="evenodd" fill="url(#linear-gradient)"/>
  <path id="Path_45523" data-name="Path 45523" d="M-86.125,198.584c.974-1.147-.779-3.234,1.852-3.276,2.723-.043,1,2.152,1.873,3.225h6.413c.668-1.088-.841-3.632,2.12-3.208,2.259.324.391,2.207,1.218,3.329.691,0,1.383-.018,2.074,0a3,3,0,0,1,2.712,4.222,1.335,1.335,0,0,1-1.03.552c-6.9.032-13.809.04-20.712-.022a1.543,1.543,0,0,1-1.065-1.028c-.383-2.533.684-3.692,3.271-3.731C-86.914,198.643-86.43,198.6-86.125,198.584Z" transform="translate(90.746 -195.278)" fill-rule="evenodd" fill="url(#linear-gradient)"/>
</svg>
