<svg id="calendar_w" xmlns="http://www.w3.org/2000/svg" width="96.118" height="95.9" viewBox="0 0 96.118 95.9">
  <g id="Icon-Calendar">
    <path id="Fill-133" d="M66.115-375.723H-10.432A9.653,9.653,0,0,1-20-385.292v-70.24c0-5.219,3.479-9.568,8.046-9.568H-7.17v6.306h-4.784c-.652,0-1.522,1.3-1.522,3.262v70.24a3.344,3.344,0,0,0,3.262,3.262H66.332a3.344,3.344,0,0,0,3.262-3.262v-70.24c0-1.957-1.087-3.262-1.522-3.262H63.288V-465.1h4.784c4.349,0,8.046,4.349,8.046,9.568v70.24a10.35,10.35,0,0,1-10,9.568" transform="translate(20 471.624)" fill="#fff"/>
    <path id="Fill-134" d="M-7.938-448.746a3.345,3.345,0,0,1-3.262-3.262v-12.83A3.345,3.345,0,0,1-7.938-468.1a3.345,3.345,0,0,1,3.262,3.262v12.83a3.506,3.506,0,0,1-3.262,3.262" transform="translate(30.337 468.1)" fill="#fff"/>
    <path id="Fill-135" d="M15.462-448.746a3.345,3.345,0,0,1-3.262-3.262v-12.83a3.345,3.345,0,0,1,3.262-3.262,3.345,3.345,0,0,1,3.262,3.262v12.83a3.344,3.344,0,0,1-3.262,3.262" transform="translate(57.823 468.1)" fill="#fff"/>
    <path id="Fill-136" d="M-5.3-465.1H26.449v6.524H-5.3Z" transform="translate(37.267 471.624)" fill="#fff"/>
    <path id="Fill-137" d="M-17.1-456.3H65.97v6.524H-17.1Z" transform="translate(23.406 481.96)" fill="#fff"/>
    <path id="Fill-138" d="M15.2-450.4h6.306v6.306H15.2Z" transform="translate(61.346 488.891)" fill="#fff"/>
    <path id="Fill-139" d="M9.3-450.4h6.524v6.306H9.3Z" transform="translate(54.416 488.891)" fill="#fff"/>
    <path id="Fill-140" d="M3.5-450.4H9.806v6.306H3.5Z" transform="translate(47.603 488.891)" fill="#fff"/>
    <path id="Fill-141" d="M-2.4-450.4H3.906v6.306H-2.4Z" transform="translate(40.673 488.891)" fill="#fff"/>
    <path id="Fill-142" d="M-8.3-450.4h6.524v6.306H-8.3Z" transform="translate(33.743 488.891)" fill="#fff"/>
    <path id="Fill-143" d="M15.2-444.5h6.306v6.306H15.2Z" transform="translate(61.346 495.821)" fill="#fff"/>
    <path id="Fill-144" d="M9.3-444.5h6.524v6.306H9.3Z" transform="translate(54.416 495.821)" fill="#fff"/>
    <path id="Fill-145" d="M3.5-444.5H9.806v6.306H3.5Z" transform="translate(47.603 495.821)" fill="#fff"/>
    <path id="Fill-146" d="M-2.4-444.5H3.906v6.306H-2.4Z" transform="translate(40.673 495.821)" fill="#fff"/>
    <path id="Fill-147" d="M-8.3-444.5h6.524v6.306H-8.3Z" transform="translate(33.743 495.821)" fill="#fff"/>
    <path id="Fill-148" d="M-14.1-444.5h6.306v6.306H-14.1Z" transform="translate(26.93 495.821)" fill="#fff"/>
    <path id="Fill-149" d="M15.2-438.7h6.306v6.524H15.2Z" transform="translate(61.346 502.634)" fill="#fff"/>
    <path id="Fill-150" d="M9.3-438.7h6.524v6.524H9.3Z" transform="translate(54.416 502.634)" fill="#fff"/>
    <path id="Fill-151" d="M3.5-438.7H9.806v6.524H3.5Z" transform="translate(47.603 502.634)" fill="#fff"/>
    <path id="Fill-152" d="M-2.4-438.7H3.906v6.524H-2.4Z" transform="translate(40.673 502.634)" fill="#fff"/>
    <path id="Fill-153" d="M-8.3-438.7h6.524v6.524H-8.3Z" transform="translate(33.743 502.634)" fill="#fff"/>
    <path id="Fill-154" d="M-14.1-438.7h6.306v6.524H-14.1Z" transform="translate(26.93 502.634)" fill="#fff"/>
    <path id="Fill-155" d="M9.3-432.8h6.524v6.306H9.3Z" transform="translate(54.416 509.564)" fill="#fff"/>
    <path id="Fill-156" d="M3.5-432.8H9.806v6.306H3.5Z" transform="translate(47.603 509.564)" fill="#fff"/>
    <path id="Fill-157" d="M-2.4-432.8H3.906v6.306H-2.4Z" transform="translate(40.673 509.564)" fill="#fff"/>
    <path id="Fill-158" d="M-8.3-432.8h6.524v6.306H-8.3Z" transform="translate(33.743 509.564)" fill="#fff"/>
    <path id="Fill-159" d="M-14.1-432.8h6.306v6.306H-14.1Z" transform="translate(26.93 509.564)" fill="#fff"/>
  </g>
</svg>
