<svg xmlns="http://www.w3.org/2000/svg" width="51.192" height="51.154" viewBox="0 0 51.192 51.154">
  <g id="call_icon" transform="translate(0.534 0.655)">
    <g id="Group_163" data-name="Group 163" transform="translate(-29.999 -31)">
      <g id="Group_162" data-name="Group 162">
        <g id="Group_161" data-name="Group 161">
          <path id="Path_483" data-name="Path 483" d="M78.69,69.573l-10.121-6.75a2.955,2.955,0,0,0-3.956.643l-2.948,3.79a1.258,1.258,0,0,1-1.615.34l-.561-.309c-1.859-1.013-4.172-2.275-8.833-6.937s-5.924-6.977-6.938-8.832l-.307-.561a1.263,1.263,0,0,1,.333-1.622l3.788-2.947a2.956,2.956,0,0,0,.644-3.955l-6.75-10.121a2.939,2.939,0,0,0-3.961-.892l-4.232,2.543A5.961,5.961,0,0,0,30.511,37.5c-1.524,5.552-.378,15.136,13.739,29.254C55.48,77.979,63.84,81,69.586,81a14.759,14.759,0,0,0,3.917-.511,5.968,5.968,0,0,0,3.533-2.723l2.544-4.229A2.939,2.939,0,0,0,78.69,69.573Zm-.545,3.108-2.539,4.232a4.308,4.308,0,0,1-2.542,1.97c-5.126,1.407-14.082.241-27.635-13.312S30.711,43.063,32.118,37.936a4.311,4.311,0,0,1,1.972-2.544l4.232-2.539a1.275,1.275,0,0,1,1.719.386l3.667,5.505,3.077,4.615a1.283,1.283,0,0,1-.278,1.717l-3.789,2.947a2.916,2.916,0,0,0-.772,3.743l.3.547c1.065,1.953,2.389,4.383,7.223,9.215s7.263,6.157,9.215,7.222l.547.3a2.916,2.916,0,0,0,3.743-.772l2.948-3.789a1.282,1.282,0,0,1,1.716-.279l10.12,6.75A1.274,1.274,0,0,1,78.145,72.681Z" fill="#00aced" stroke="#00aced" stroke-width="1"/>
          <path id="Path_484" data-name="Path 484" d="M58.332,39.336A14.182,14.182,0,0,1,72.5,53.5a.833.833,0,1,0,1.666,0A15.849,15.849,0,0,0,58.332,37.67a.833.833,0,1,0,0,1.666Z" fill="#00aced" stroke="#00aced" stroke-width="1"/>
          <path id="Path_485" data-name="Path 485" d="M58.332,44.336A9.177,9.177,0,0,1,67.5,53.5a.834.834,0,0,0,1.667,0A10.846,10.846,0,0,0,58.332,42.669a.834.834,0,0,0,0,1.667Z" fill="#00aced" stroke="#00aced" stroke-width="1"/>
          <path id="Path_486" data-name="Path 486" d="M58.332,49.335A4.173,4.173,0,0,1,62.5,53.5a.833.833,0,1,0,1.666,0,5.84,5.84,0,0,0-5.833-5.833.833.833,0,0,0,0,1.666Z" fill="#00aced" stroke="#00aced" stroke-width="1"/>
        </g>
      </g>
    </g>
  </g>
</svg>
