<svg id="change-password" xmlns="http://www.w3.org/2000/svg" xmlns:xlink="http://www.w3.org/1999/xlink" width="23.152" height="26.586" viewBox="0 0 23.152 26.586">
  <defs>
    <linearGradient id="linear-gradient" x1="0.5" x2="0.5" y2="1" gradientUnits="objectBoundingBox">
      <stop offset="0" stop-color="#00aeef"/>
      <stop offset="1" stop-color="#2970ae"/>
    </linearGradient>
  </defs>
  <path id="Path_45517" data-name="Path 45517" d="M-282.956,29.61c0-1.372-.066-2.811.013-4.242a7.752,7.752,0,0,1,7.594-7.219,7.751,7.751,0,0,1,7.753,7.23c.078,1.431.012,2.87.012,4.238,3.674.7,3.883.968,3.883,4.594,0,2.453.02,4.906-.007,7.358-.025,2.293-.88,3.153-3.121,3.158q-8.446.017-16.891,0c-2.234,0-3.087-.869-3.112-3.168-.027-2.452-.007-4.906-.007-7.358C-286.839,30.583-286.645,30.338-282.956,29.61Zm3.859.256h4.156c4.036,0,4.037,0,3.613-4.051a6.091,6.091,0,0,0-.113-.656,3.92,3.92,0,0,0-3.823-3.1,3.741,3.741,0,0,0-3.794,3.094A37.986,37.986,0,0,0-279.1,29.866Z" transform="translate(286.846 -18.147)" fill-rule="evenodd" fill="url(#linear-gradient)"/>
</svg>
