<?xml version="1.0" encoding="utf-8"?>
<!-- Generator: Adobe Illustrator 25.1.0, SVG Export Plug-In . SVG Version: 6.00 Build 0)  -->
<svg version="1.1" id="Layer_1" xmlns="http://www.w3.org/2000/svg" xmlns:xlink="http://www.w3.org/1999/xlink" x="0px" y="0px"
	 viewBox="0 0 79 79" style="enable-background:new 0 0 79 79;" xml:space="preserve">
<style type="text/css">
	.st0{fill:#051536;}
</style>
<g>
	<g>
		<g>
			<path class="st0" d="M76.7,10.8c-1.2-1.2-3-1.2-4.2,0L36.8,46.4l-12.9-14c-1.1-1.2-3-1.3-4.2-0.2c-1.2,1.1-1.3,3-0.2,4.2l15,16.3
				c0.5,0.6,1.3,0.9,2.1,1c0,0,0,0,0.1,0c0.8,0,1.5-0.3,2.1-0.9L76.7,15C77.9,13.8,77.9,12,76.7,10.8z"/>
		</g>
	</g>
	<g>
		<g>
			<path class="st0" d="M76,36.5c-1.6,0-3,1.3-3,3C73,58,58,73,39.5,73S6,58,6,39.5S21,6,39.5,6c1.6,0,3-1.3,3-3c0-1.6-1.3-3-3-3
				C17.7,0,0,17.7,0,39.5S17.7,79,39.5,79S79,61.3,79,39.5C79,37.9,77.7,36.5,76,36.5z"/>
		</g>
	</g>
</g>
</svg>
