<svg id="dashboard" xmlns="http://www.w3.org/2000/svg" xmlns:xlink="http://www.w3.org/1999/xlink" width="23.153" height="20.182" viewBox="0 0 23.153 20.182">
  <defs>
    <linearGradient id="linear-gradient" x1="0.5" x2="0.5" y2="1" gradientUnits="objectBoundingBox">
      <stop offset="0" stop-color="#00aeef"/>
      <stop offset="1" stop-color="#2970ae"/>
    </linearGradient>
  </defs>
  <path id="Path_45510" data-name="Path 45510" d="M-448.892,182.225c-.007-1.591-.807-2.348-2.421-2.351q-9.137-.017-18.273,0c-1.616,0-2.418.758-2.425,2.347q-.034,7.7,0,15.4c.006,1.675.792,2.417,2.495,2.424,2.974.012,5.947,0,8.921,0,3.069,0,6.139.009,9.209,0,1.7-.007,2.492-.747,2.5-2.42Q-448.862,189.922-448.892,182.225Zm-13.031,14.028c0,.675-.21.934-.9.921q-2.663-.053-5.327,0c-.686.014-.929-.225-.914-.911.035-1.631.012-3.263.011-4.9,0-1.584.031-3.169-.014-4.751-.022-.746.217-1.015.98-1q2.59.068,5.183,0c.751-.019,1,.23.989.986C-461.953,189.821-461.948,193.037-461.923,196.252Zm8.985.93c-1.677-.072-3.359-.048-5.038-.008-.727.017-1.017-.189-1.009-.966.036-3.215.027-6.431.005-9.647,0-.655.169-.955.885-.94,1.775.037,3.553.048,5.327,0,.82-.024.947.354.932,1.041-.033,1.583-.01,3.168-.01,4.751,0,1.536-.042,3.074.016,4.607C-451.8,196.867-452.009,197.222-452.938,197.182Z" transform="translate(472.028 -179.865)" fill-rule="evenodd" fill="url(#linear-gradient)"/>
</svg>
