<svg xmlns="http://www.w3.org/2000/svg" width="74.391" height="57.266" viewBox="0 0 74.391 57.266">
  <g id="email_icon" transform="translate(0.5 0.5)">
    <g id="Group_166" data-name="Group 166" transform="translate(-11.609 -24)">
      <g id="Group_165" data-name="Group 165">
        <path id="Path_487" data-name="Path 487" d="M81.33,24H15.279a3.67,3.67,0,0,0-3.67,3.67V76.6a3.67,3.67,0,0,0,3.67,3.67H81.33A3.67,3.67,0,0,0,85,76.6V27.67A3.67,3.67,0,0,0,81.33,24Zm1.224,52.6A1.224,1.224,0,0,1,81.33,77.82H15.279A1.223,1.223,0,0,1,14.056,76.6V27.67a1.223,1.223,0,0,1,1.223-1.224H81.33a1.224,1.224,0,0,1,1.224,1.224V76.6Z" fill="#58c3ec" stroke="#58c3ec" stroke-width="1"/>
        <path id="Path_488" data-name="Path 488" d="M78.991,28.9a1.221,1.221,0,0,0-.893.282l-28.219,23.7a2.447,2.447,0,0,1-3.149,0l-28.218-23.7a1.223,1.223,0,0,0-1.573,1.874l28.219,23.7a4.887,4.887,0,0,0,6.294,0l28.219-23.7a1.224,1.224,0,0,0-.68-2.156Z" fill="#58c3ec" stroke="#58c3ec" stroke-width="1"/>
        <path id="Path_489" data-name="Path 489" d="M35.135,54.589a1.221,1.221,0,0,0-1.179.379L16.831,73.316a1.223,1.223,0,1,0,1.788,1.668L35.744,56.637a1.223,1.223,0,0,0-.609-2.048Z" fill="#58c3ec" stroke="#58c3ec" stroke-width="1"/>
        <path id="Path_490" data-name="Path 490" d="M62.654,54.968a1.223,1.223,0,1,0-1.788,1.669L77.99,74.984a1.223,1.223,0,0,0,1.788-1.668Z" fill="#58c3ec" stroke="#58c3ec" stroke-width="1"/>
      </g>
    </g>
  </g>
</svg>
