<svg id="favourite" xmlns="http://www.w3.org/2000/svg" xmlns:xlink="http://www.w3.org/1999/xlink" width="22.391" height="29.862" viewBox="0 0 22.391 29.862">
  <defs>
    <linearGradient id="linear-gradient" x1="0.5" x2="0.5" y2="1" gradientUnits="objectBoundingBox">
      <stop offset="0" stop-color="#00aeef"/>
      <stop offset="1" stop-color="#2970ae"/>
    </linearGradient>
  </defs>
  <path id="Path_45511" data-name="Path 45511" d="M-192.263,233.939c0-9.239-.023-18.12.019-27a2.7,2.7,0,0,1,3-2.836q8.113-.049,16.226,0a2.785,2.785,0,0,1,3.12,3.109c.027,8.763.012,17.527.012,26.368-.8.135-1.3-.4-1.838-.71-2.532-1.45-5.1-2.855-7.541-4.442a2.988,2.988,0,0,0-3.7.043C-185.891,230.314-188.929,231.993-192.263,233.939Z" transform="translate(192.27 -204.077)" fill-rule="evenodd" fill="url(#linear-gradient)"/>
</svg>
