<svg id="icon-call" xmlns="http://www.w3.org/2000/svg" width="18.895" height="18.894" viewBox="0 0 18.895 18.894">
  <path id="Icon_ionic-ios-call" data-name="Icon ionic-ios-call" d="M22.839,19.3a15.871,15.871,0,0,0-3.315-2.218c-.994-.477-1.358-.467-2.061.039-.585.423-.964.817-1.638.669a9.771,9.771,0,0,1-3.291-2.435A9.7,9.7,0,0,1,10.1,12.061c-.143-.679.251-1.053.669-1.638.507-.7.521-1.067.039-2.061A15.557,15.557,0,0,0,8.589,5.047c-.723-.723-.885-.566-1.284-.423a7.306,7.306,0,0,0-1.176.625,3.546,3.546,0,0,0-1.412,1.49c-.28.605-.605,1.731,1.048,4.673a26.074,26.074,0,0,0,4.584,6.114h0l0,0,0,0h0a26.176,26.176,0,0,0,6.114,4.584c2.941,1.653,4.068,1.328,4.673,1.048a3.486,3.486,0,0,0,1.49-1.412,7.306,7.306,0,0,0,.625-1.176C23.405,20.182,23.567,20.02,22.839,19.3Z" transform="translate(-4.49 -4.503)" fill="#00aeef"/>
</svg>
