<svg id="icons-success" xmlns="http://www.w3.org/2000/svg" width="93.636" height="93.636" viewBox="0 0 93.636 93.636">
  <path id="Icon_ionic-ios-checkmark-circle" data-name="Icon ionic-ios-checkmark-circle" d="M50.193,3.375A46.818,46.818,0,1,0,97.011,50.193,46.811,46.811,0,0,0,50.193,3.375ZM74.165,37.251,44.071,67.48h-.023a4.065,4.065,0,0,1-2.611,1.238A3.941,3.941,0,0,1,38.8,67.435L26.2,54.83a.9.9,0,0,1,0-1.283l4.007-4.007a.87.87,0,0,1,1.26,0l9.994,9.994L68.921,31.871a.889.889,0,0,1,.63-.27h0a.817.817,0,0,1,.63.27l3.939,4.074A.887.887,0,0,1,74.165,37.251Z" transform="translate(-3.375 -3.375)" fill="#00aeef"/>
</svg>
