<svg id="invoices" xmlns="http://www.w3.org/2000/svg" xmlns:xlink="http://www.w3.org/1999/xlink" width="23.152" height="31.036" viewBox="0 0 23.152 31.036">
  <defs>
    <linearGradient id="linear-gradient" x1="0.5" x2="0.5" y2="1" gradientUnits="objectBoundingBox">
      <stop offset="0" stop-color="#00aeef"/>
      <stop offset="1" stop-color="#2970ae"/>
    </linearGradient>
  </defs>
  <path id="Path_45532" data-name="Path 45532" d="M-129.822,324.479c0-4.3-.014-8.6,0-12.9.009-2.371.252-2.607,2.544-2.616,2.8-.01,5.607.085,8.4-.036,1.618-.07,2.045.6,1.989,2.058-.069,1.821-.019,3.648.013,5.471.028,1.56.709,2.4,2.417,2.311,1.885-.092,3.779.024,5.667-.036,1.147-.036,1.679.359,1.674,1.556-.025,5.929-.017,11.858-.013,17.787,0,1.3-.608,1.881-1.919,1.877-6.254-.02-12.509-.031-18.764.007-1.577.009-2.029-.782-2.021-2.189C-129.8,333.34-129.82,328.909-129.822,324.479Zm11.352,6.012h2.543c6.14,0,6.117,0,5.673-6.135-.1-1.428-.6-2.1-2.153-2.053-2.865.094-5.736.026-8.6.026-6.14,0-6.117,0-5.673,6.135.1,1.427.6,2.129,2.154,2.051C-122.516,330.413-120.491,330.49-118.47,330.491Zm-4.789-17.94a7.746,7.746,0,0,0-2.128.049,1.9,1.9,0,0,0-1.1,1.15c-.069.247.6.988.981,1.021a24.448,24.448,0,0,0,4.276,0c.383-.034,1.059-.761.993-1.009a1.935,1.935,0,0,0-1.089-1.163A6.221,6.221,0,0,0-123.259,312.551Zm.025,3.927v-.007a10.077,10.077,0,0,0-2.324.051,1.5,1.5,0,0,0-.934,1.095,1.454,1.454,0,0,0,.958,1.067,28.942,28.942,0,0,0,4.471-.009,1.3,1.3,0,0,0,.831-.985,1.607,1.607,0,0,0-.875-1.16A7.841,7.841,0,0,0-123.233,316.478Zm9.689,19.86v.018a6.618,6.618,0,0,0,1.933-.045c.478-.152.83-.7,1.237-1.077-.4-.385-.765-1.059-1.2-1.1a22.465,22.465,0,0,0-4.274.015c-.343.033-.812.725-.865,1.158-.037.306.483.912.837.985A11.681,11.681,0,0,0-113.544,336.338Z" transform="translate(129.829 -308.922)" fill-rule="evenodd" fill="url(#linear-gradient)"/>
  <path id="Path_45533" data-name="Path 45533" d="M-89.773,309.019l7.465,6.437-.7,1.029c-1.982,0-3.967.048-5.944-.052-.292-.014-.77-.713-.787-1.112C-89.818,313.382-89.773,311.437-89.773,309.019Z" transform="translate(105.461 -308.981)" fill-rule="evenodd" fill="url(#linear-gradient)"/>
  <path id="Path_45534" data-name="Path 45534" d="M-109.463,352.56c-1.167,0-2.339-.076-3.5.02-1.455.119-1.939-.468-1.928-1.895.011-1.408.619-1.764,1.9-1.726,2.46.071,4.927.086,7.386,0,1.471-.054,1.722.671,1.72,1.9s-.4,1.8-1.7,1.721S-108.168,352.56-109.463,352.56Z" transform="translate(120.738 -333.282)" fill-rule="evenodd" fill="url(#linear-gradient)"/>
</svg>
