<svg id="location_icon" xmlns="http://www.w3.org/2000/svg" width="40.782" height="58" viewBox="0 0 40.782 58">
  <g id="Group_157" data-name="Group 157" transform="translate(-637.609 428)">
    <g id="Group_156" data-name="Group 156">
      <path id="Path_481" data-name="Path 481" d="M658-428a20.414,20.414,0,0,0-20.391,20.391,20.352,20.352,0,0,0,3.044,10.722L656.839-370.8a1.7,1.7,0,0,0,1.444.8h.014a1.7,1.7,0,0,0,1.444-.826l15.774-26.337a20.369,20.369,0,0,0,2.876-10.446A20.414,20.414,0,0,0,658-428Zm14.6,29.093-14.341,23.944-14.715-23.715a16.966,16.966,0,0,1-2.557-8.931A17.05,17.05,0,0,1,658-424.624a17.041,17.041,0,0,1,17,17.015A16.98,16.98,0,0,1,672.6-398.907Z" fill="#00abec"/>
    </g>
  </g>
  <g id="Group_159" data-name="Group 159" transform="translate(-637.609 428)">
    <g id="Group_158" data-name="Group 158">
      <path id="Path_482" data-name="Path 482" d="M658-417.8a10.207,10.207,0,0,0-10.2,10.2,10.182,10.182,0,0,0,10.2,10.2,10.176,10.176,0,0,0,10.2-10.2A10.207,10.207,0,0,0,658-417.8Zm0,17.015a6.825,6.825,0,0,1-6.82-6.819,6.844,6.844,0,0,1,6.82-6.82,6.834,6.834,0,0,1,6.808,6.82A6.811,6.811,0,0,1,658-400.79Z" fill="#00abec"/>
    </g>
  </g>
</svg>
