<svg id="password" xmlns="http://www.w3.org/2000/svg" xmlns:xlink="http://www.w3.org/1999/xlink" width="24.796" height="28.474" viewBox="0 0 24.796 28.474">
  <defs>
    <linearGradient id="linear-gradient" x1="0.5" x2="0.5" y2="1" gradientUnits="objectBoundingBox">
      <stop offset="0" stop-color="#00aeef"/>
      <stop offset="1" stop-color="#2970ae"/>
    </linearGradient>
  </defs>
  <path id="Path_45517" data-name="Path 45517" d="M-282.68,30.423c0-1.47-.07-3.011.014-4.543a8.3,8.3,0,0,1,8.133-7.732,8.3,8.3,0,0,1,8.3,7.743c.084,1.532.013,3.073.013,4.538,3.935.753,4.158,1.036,4.159,4.92,0,2.627.022,5.254-.008,7.881-.027,2.456-.943,3.377-3.343,3.382q-9.046.018-18.09,0c-2.393-.005-3.306-.93-3.332-3.393-.029-2.627-.008-5.254-.008-7.881C-286.838,31.466-286.63,31.2-282.68,30.423Zm4.132.275h4.451c4.323,0,4.324,0,3.87-4.339a6.523,6.523,0,0,0-.121-.7,4.2,4.2,0,0,0-4.094-3.319,4.006,4.006,0,0,0-4.063,3.314A40.684,40.684,0,0,0-278.547,30.7Z" transform="translate(286.846 -18.147)" fill-rule="evenodd" fill="url(#linear-gradient)"/>
</svg>
