<svg id="pf-setting" xmlns="http://www.w3.org/2000/svg" xmlns:xlink="http://www.w3.org/1999/xlink" width="30.685" height="25.062" viewBox="0 0 30.685 25.062">
  <defs>
    <linearGradient id="linear-gradient" x1="0.5" x2="0.5" y2="1" gradientUnits="objectBoundingBox">
      <stop offset="0" stop-color="#00aeef"/>
      <stop offset="1" stop-color="#2970ae"/>
    </linearGradient>
  </defs>
  <path id="Path_45514" data-name="Path 45514" d="M-128.9,98.428l1.36,3.265c-1.263.89-1.2,2.26-.466,3.718.942,1.863,1.99,3.576,4.707,2.69q0,.3,0,.591a4.725,4.725,0,0,1-1.472.543q-8.3.058-16.6.013a2.209,2.209,0,0,1-2.477-2.433c-.09-2.173-.153-4.366,1.54-6.084,1.817-1.845,3.875-2.821,6.529-1.86a8.074,8.074,0,0,0,5.566-.048C-129.737,98.654-129.247,98.531-128.9,98.428Z" transform="translate(143.885 -84.205)" fill-rule="evenodd" fill="url(#linear-gradient)"/>
  <path id="Path_45515" data-name="Path 45515" d="M-116.741,59.8a6.179,6.179,0,0,1-6.008,6.092,6.187,6.187,0,0,1-6.041-6.374,6.178,6.178,0,0,1,6.085-6.013A6.18,6.18,0,0,1-116.741,59.8Z" transform="translate(133.57 -53.504)" fill-rule="evenodd" fill="url(#linear-gradient)"/>
  <path id="Path_45516" data-name="Path 45516" d="M-78.168,96.753c-.57.556-1.611,1.1-1.754,1.817-.25,1.266-.974,1.176-1.813,1.168-.773-.008-1.547.137-1.687-1.091a2.012,2.012,0,0,0-2.716-1.473c-1.027.43-1.438-.207-1.669-.867-.223-.635-.422-1.6-.106-2.045.952-1.343,1.092-2.17-.064-3.348-.878-.9-.139-1.544.224-2.239.324-.622.7-1.107,1.612-.729a2.016,2.016,0,0,0,2.72-1.468c.139-1.226.909-1.112,1.684-1.088.732.022,1.576-.249,1.749,1.012s1.479,1.774,2.826,1.6a2.073,2.073,0,0,1,1.607.931,2.122,2.122,0,0,1,.1,1.893c-1.03,1.365-1.031,2.11,0,3.469a2.122,2.122,0,0,1-.094,1.892c-.285.482-1.039.717-1.625.971C-77.343,97.228-77.645,96.978-78.168,96.753Zm-.965-4.268a2.593,2.593,0,0,0-2.682-2.509,2.588,2.588,0,0,0-2.455,2.579,2.593,2.593,0,0,0,2.6,2.592A2.6,2.6,0,0,0-79.133,92.486Z" transform="translate(105.96 -75.286)" fill-rule="evenodd" fill="url(#linear-gradient)"/>
</svg>
