<svg id="schedule-time" xmlns="http://www.w3.org/2000/svg" xmlns:xlink="http://www.w3.org/1999/xlink" width="23.152" height="31.226" viewBox="0 0 23.152 31.226">
  <defs>
    <linearGradient id="linear-gradient" x1="0.5" x2="0.5" y2="1" gradientUnits="objectBoundingBox">
      <stop offset="0" stop-color="#00aeef"/>
      <stop offset="1" stop-color="#2970ae"/>
    </linearGradient>
  </defs>
  <path id="Path_45531" data-name="Path 45531" d="M287.267,274.977c-1.017-.7-1.959-1.261-2.8-1.947a11.71,11.71,0,0,1-3.908-6.663c-.334-1.421-.314-2.839-1.473-4.089-1.05-1.132-.045-2.837,1.552-2.847q9.547-.059,19.093.023c.6.006,1.577.466,1.692.9a4.741,4.741,0,0,1-.348,2.36c-.136.453-.724.81-.772,1.246-.521,4.8-2.538,8.619-7.21,10.942a11.247,11.247,0,0,0,1.194.925,11.636,11.636,0,0,1,5.541,7.558c.415,1.527.362,3.091,1.57,4.467,1.03,1.173-.024,2.747-1.688,2.756-6.3.032-12.6.036-18.9-.022-.617-.006-1.619-.391-1.754-.819a4.416,4.416,0,0,1,.246-2.381A21.02,21.02,0,0,0,280.326,285c.635-4.143,2.513-7.4,6.286-9.434A4.346,4.346,0,0,0,287.267,274.977Zm2.966,12.033c1.767,0,3.535-.034,5.3.012,1.145.03,1.711-.539,1.339-1.544a22.351,22.351,0,0,0-2.588-5.8,4.973,4.973,0,0,0-7.993-.127c-1.307,1.672-1.949,3.9-2.718,5.939-.379,1.007.228,1.559,1.359,1.53C286.7,286.976,288.466,287.01,290.234,287.01Z" transform="translate(-278.655 -259.404)" fill-rule="evenodd" fill="url(#linear-gradient)"/>
</svg>
