<svg id="social-media" xmlns="http://www.w3.org/2000/svg" xmlns:xlink="http://www.w3.org/1999/xlink" width="23.152" height="26.928" viewBox="0 0 23.152 26.928">
  <defs>
    <linearGradient id="linear-gradient" x1="0.5" x2="0.5" y2="1" gradientUnits="objectBoundingBox">
      <stop offset="0" stop-color="#00aeef"/>
      <stop offset="1" stop-color="#2970ae"/>
    </linearGradient>
  </defs>
  <path id="Path_45535" data-name="Path 45535" d="M190.222,161.588a4.646,4.646,0,0,1,6.579-4.416,2.742,2.742,0,0,0,3.1-.326,17.117,17.117,0,0,1,2.3-1.444,2.834,2.834,0,0,0,1.707-2.8,4.759,4.759,0,0,1,4.533-4.454,4.992,4.992,0,0,1,4.8,3.822c.473,2.632-.745,5.1-3.1,5.69a6.62,6.62,0,0,1-3.567-.226,2.567,2.567,0,0,0-2.656.274c-.965.693-2.017,1.262-3.015,1.91-1.739,1.13-1.72,2.878.038,4.019a20.716,20.716,0,0,1,1.868,1.178,4,4,0,0,0,4.614.685c2.284-.993,5.211.834,5.784,3.264A4.938,4.938,0,0,1,209.237,175c-2.293.471-5.173-1.479-5.254-3.912a3.733,3.733,0,0,0-2.4-3.639,11.088,11.088,0,0,1-1.867-1.178,2.447,2.447,0,0,0-2.8-.26A4.664,4.664,0,0,1,190.222,161.588Z" transform="translate(-190.222 -148.139)" fill-rule="evenodd" fill="url(#linear-gradient)"/>
</svg>
